<svg width="140" height="40" viewBox="0 0 140 40" fill="none" xmlns="http://www.w3.org/2000/svg">
<path fill-rule="evenodd" clip-rule="evenodd" d="M37.315 1.1683C37.315 0.737012 36.7935 0.521021 36.4886 0.825987L31.8896 5.42489L24.1606 13.1539L17.6567 19.6578C17.4677 19.8468 17.4677 20.1534 17.6567 20.3424L24.1606 26.8463L31.8896 34.5753L36.4886 39.1742C36.7935 39.4792 37.315 39.2632 37.315 38.8319V26.5087C37.315 26.3803 37.264 26.2572 37.1732 26.1664L31.3492 20.3424C31.1601 20.1534 31.1601 19.8469 31.3492 19.6578L37.1732 13.8338C37.264 13.743 37.315 13.6199 37.315 13.4915V1.1683Z" fill="#F1DC4A"/>
<path d="M10.7091 19.9679C10.3044 19.6139 9.70029 19.6139 9.29567 19.9679L1.78348 26.5411C1.55058 26.7449 1.41699 27.0393 1.41699 27.3487V37.5935C1.41699 38.1862 1.89747 38.6667 2.49017 38.6667H17.5146C18.1073 38.6667 18.5877 38.1862 18.5877 37.5935V27.3487C18.5877 27.0393 18.4541 26.7449 18.2213 26.5411L10.7091 19.9679Z" fill="#62CDC9"/>
<path d="M10.7091 19.3816C10.3044 19.7357 9.70029 19.7357 9.29567 19.3816L1.78348 12.8085C1.55058 12.6047 1.41699 12.3103 1.41699 12.0008V1.75609C1.41699 1.16339 1.89747 0.682917 2.49017 0.682917H17.5146C18.1073 0.682917 18.5877 1.16339 18.5877 1.75609V12.0008C18.5877 12.3103 18.4541 12.6047 18.2213 12.8085L10.7091 19.3816Z" fill="#FC476D"/>
<path d="M83.8746 8.23267C84.0524 8.23267 84.1966 8.37681 84.1966 8.55462V31.2071C84.1966 31.3849 84.0524 31.529 83.8746 31.529H79.0132C78.8354 31.529 78.6912 31.3849 78.6912 31.2071V8.55462C78.6912 8.37681 78.8354 8.23267 79.0132 8.23267H83.8746Z" fill="white"/>
<path d="M74.9197 8.24698C75.1369 8.24698 75.263 8.4928 75.1363 8.66922L65.4591 22.1409L65.105 21.3039L60.0503 27.4531L58.9879 22.978L69.2107 8.36082C69.2606 8.28947 69.3422 8.24698 69.4292 8.24698H74.9197ZM61.4256 8.24698C61.5729 8.24698 61.6923 8.36637 61.6923 8.51365V31.1787C61.6923 31.3259 61.5729 31.4453 61.4256 31.4453H56.4214C56.2741 31.4453 56.1547 31.3259 56.1547 31.1787V8.51364C56.1547 8.36637 56.2741 8.24698 56.4214 8.24698H61.4256ZM67.262 17.2151L75.5827 31.0412C75.6897 31.2189 75.5617 31.4453 75.3542 31.4453H69.7018C69.6065 31.4453 69.5185 31.3946 69.4709 31.3121L63.1089 20.3058L67.262 17.2151Z" fill="white"/>
<path d="M105.623 15.0258C107.255 15.0258 108.607 15.2619 109.68 15.7341C110.775 16.1848 111.622 16.7965 112.223 17.5692C112.792 18.256 113.164 18.9966 113.338 19.7911C113.367 19.9198 113.29 20.0467 113.165 20.0881L108.624 21.5919C108.469 21.6435 108.304 21.5433 108.271 21.3826C108.112 20.6132 107.852 20.0289 107.491 19.6297C107.104 19.1575 106.535 18.9214 105.784 18.9214C105.097 18.9214 104.518 19.0824 104.046 19.4043C103.595 19.7048 103.252 20.1985 103.015 20.8853C102.779 21.5507 102.661 22.4092 102.661 23.4609C102.661 24.5126 102.79 25.3712 103.048 26.0365C103.305 26.6804 103.67 27.1526 104.142 27.4531C104.615 27.7322 105.173 27.8717 105.816 27.8717C106.353 27.8717 106.793 27.7751 107.136 27.5819C107.501 27.3673 107.802 27.0668 108.038 26.6804C108.227 26.3705 108.362 26.0052 108.44 25.5847C108.471 25.4196 108.638 25.3116 108.798 25.3628L113.197 26.7716C113.322 26.8118 113.4 26.9377 113.373 27.0666C113.197 27.9211 112.803 28.6938 112.191 29.3848C111.547 30.1146 110.689 30.6941 109.615 31.1234C108.542 31.5526 107.287 31.7673 105.849 31.7673C104.089 31.7673 102.554 31.4453 101.245 30.8014C99.9355 30.1361 98.9267 29.1809 98.2184 27.9361C97.5101 26.6697 97.156 25.1565 97.156 23.3965C97.156 21.6365 97.5101 20.1341 98.2184 18.8892C98.9267 17.6229 99.914 16.6678 101.18 16.0239C102.468 15.3585 103.949 15.0258 105.623 15.0258Z" fill="white"/>
<path d="M133.32 15.3478C133.553 15.3478 133.674 15.6265 133.514 15.7968L126.259 23.5355C126.226 23.571 126.184 23.5967 126.137 23.6098L125.253 23.8584C125.204 23.8722 125.16 23.8996 125.126 23.9374L121.036 28.5143C120.873 28.6963 120.572 28.5822 120.57 28.3381L120.543 23.5323C120.542 23.4657 120.567 23.4013 120.611 23.3519L127.771 15.4356C127.821 15.3797 127.893 15.3478 127.969 15.3478H133.32ZM121.467 8.5224C121.614 8.5224 121.733 8.64179 121.733 8.78906V31.1787C121.733 31.3259 121.614 31.4453 121.467 31.4453H116.527C116.379 31.4453 116.26 31.3259 116.26 31.1787V8.78906C116.26 8.64179 116.379 8.5224 116.527 8.5224H121.467ZM126.812 20.3871C126.934 20.277 127.126 20.3027 127.215 20.441L134.025 31.0345C134.139 31.2119 134.012 31.4453 133.801 31.4453H128.389C128.294 31.4453 128.207 31.3956 128.159 31.3145L123.583 23.5844C123.518 23.4751 123.54 23.3354 123.634 23.2504L126.812 20.3871Z" fill="white"/>
<circle cx="90.7301" cy="11.1225" r="2.88979" fill="#F1DC4A"/>
<path d="M88.4361 15.4545C88.1982 15.3 87.8403 15.4576 87.8403 15.7413V31.5291H93.6199V15.7413C93.6199 15.4576 93.262 15.3 93.0241 15.4545C92.3832 15.8707 91.5895 16.1169 90.7301 16.1169C89.8707 16.1169 89.077 15.8707 88.4361 15.4545Z" fill="white"/>
</svg>
